<?xml version="1.0" encoding="UTF-8" standalone="no"?><!DOCTYPE svg PUBLIC "-//W3C//DTD SVG 1.1//EN" "http://www.w3.org/Graphics/SVG/1.1/DTD/svg11.dtd"><svg width="100%" height="100%" viewBox="0 0 2134 2134" version="1.1" xmlns="http://www.w3.org/2000/svg" xmlns:xlink="http://www.w3.org/1999/xlink" xml:space="preserve" style="fill-rule:evenodd;clip-rule:evenodd;stroke-linejoin:round;stroke-miterlimit:2;"><rect x="0" y="0" width="2133.33" height="2133.33" style="fill:none;"/><g><path d="M1887.54,812.535c-34.738,-239.751 -177.529,-405.547 -416.391,-500.267c40.711,-21.511 67.022,-32.284 67.022,-32.284c-115.058,-40.534 -214.933,-64.143 -301.405,-74.88c45.476,-34.24 75.84,-47.254 75.84,-47.254c-702.293,-99.057 -1048.6,291.556 -1070.36,655.218c-137.6,24.142 -242.24,143.716 -242.24,288.036c0,142.826 102.507,261.475 238.08,287.289c15.502,334.755 380.444,602.702 828.551,602.702c448.178,-0 813.12,-267.947 828.622,-602.702c135.538,-25.849 238.08,-144.534 238.08,-287.289c0,-145.494 -106.489,-265.885 -245.795,-288.569m-1642.17,472.32c-82.133,-21.334 -143.04,-95.111 -143.04,-183.751c-0,-85.903 57.351,-157.796 135.68,-181.547c1.742,76.871 21.973,150.364 57.387,218.098c-24.118,46.214 -40.991,95.861 -50.027,147.2m1267.45,63.538c47.218,58.88 74.88,127.644 74.88,201.422c-0,216.249 -233.316,391.466 -521.067,391.466c-287.751,0 -521.031,-175.217 -521.031,-391.466c0,-73.778 27.627,-142.542 74.916,-201.422c-162.027,-98.063 -265.743,-248.178 -265.743,-416.676c0,-602.098 711.858,-218.524 711.858,-218.524c0,-0 711.893,-383.538 711.893,218.524c0,168.462 -103.715,318.613 -265.706,416.676m375.146,-63.538c-9.05,-51.342 -25.909,-100.997 -49.991,-147.236c35.414,-67.733 55.609,-141.226 57.351,-218.098c78.329,23.787 135.645,95.645 135.645,181.547c-0,88.676 -60.871,162.453 -143.005,183.787" style="fill:#e4e8f7;fill-rule:nonzero;"/><path d="M1142.93,1379.65c19.663,-0 35.556,-32.676 35.556,-73.138c-0,-40.284 -15.893,-73.209 -35.556,-73.209c-19.697,0 -35.555,32.925 -35.555,73.209c-0,40.462 15.858,73.138 35.555,73.138" style="fill:#e4e8f7;fill-rule:nonzero;"/><path d="M990.329,1379.65c19.662,-0 35.555,-32.676 35.555,-73.138c0,-40.284 -15.893,-73.209 -35.555,-73.209c-19.698,0 -35.556,32.925 -35.556,73.209c0,40.462 15.858,73.138 35.556,73.138" style="fill:#e4e8f7;fill-rule:nonzero;"/><ellipse cx="1375.36" cy="1057.62" rx="124.444" ry="160" style="fill:#e4e8f7;"/><ellipse cx="757.973" cy="1057.62" rx="124.444" ry="160" style="fill:#e4e8f7;"/><path d="M1066.6,1544.48c-166.72,0 -336.32,-45.191 -350.045,-33.493c-50.667,43.165 104.676,246.72 350.045,248.071c245.333,-1.244 400.782,-204.871 350.008,-248.071c-13.724,-11.662 -183.253,33.529 -350.008,33.493" style="fill:#e4e8f7;fill-rule:nonzero;"/></g></svg>