<?xml version="1.0" encoding="UTF-8" standalone="no"?><!DOCTYPE svg PUBLIC "-//W3C//DTD SVG 1.1//EN" "http://www.w3.org/Graphics/SVG/1.1/DTD/svg11.dtd"><svg width="100%" height="100%" viewBox="0 0 1034 1067" version="1.1" xmlns="http://www.w3.org/2000/svg" xmlns:xlink="http://www.w3.org/1999/xlink" xml:space="preserve" style="fill-rule:evenodd;clip-rule:evenodd;stroke-linejoin:round;stroke-miterlimit:2;"><path d="M325.617,807.525l-208.734,132.363l7.309,69.225l13.746,-0c30.983,-0 58.487,19.825 68.287,49.22l-131.25,0l-23.829,-145.841c-2.109,-12.896 3.637,-25.813 14.621,-32.884l154.583,-99.508c5.233,-3.362 8.658,-8.917 9.321,-15.1l4.275,-39.783c26.079,29.521 57.333,57.629 91.671,82.308Zm463.029,17.021l82.033,184.571l41.013,49.216l82.033,0c-10.433,-21.166 -28.967,-37.237 -51.4,-44.566l-14.225,-4.65l-53.321,-184.571l-11.575,-80.463c-25.279,17.6 -52.858,32.08 -82.229,42.825l7.671,37.638Zm231.525,-294.392l-26.446,-13.229l0,-24.608l16.408,-24.609l-119.737,-53.216c-16.567,-7.363 -36.004,-2.979 -47.8,10.787l-78.559,91.65c0,0 -314.537,-62.037 -364.866,-73.454c-105.242,-23.875 -189.796,-50.896 -248.254,-95.529c-60.963,-46.554 -92.03,-105.871 -92.346,-176.304c0.408,-62.979 51.766,-114.092 114.842,-114.092c63.325,0 114.841,51.517 114.841,114.846c0,13.592 11.017,24.608 24.608,24.608c13.592,0 24.609,-11.016 24.609,-24.608c0.004,-90.467 -73.592,-164.063 -164.058,-164.063c-78.821,0 -147.363,58.842 -161.73,136.388c-15.321,82.708 25.692,198.917 150.759,269.892c34.233,19.429 94.95,44.212 109.375,49.591c-39.554,26.625 -65.596,71.784 -65.596,123.05c-0,28.313 7.608,54.967 21.758,77.225c44.892,70.6 138.05,131.254 138.05,131.254c0.05,0.034 0.1,0.071 0.15,0.105l-77.929,213.283l49.225,49.212l114.846,0c-9.8,-29.391 -37.304,-49.22 -68.288,-49.22l-21.95,-0l114.017,-197.63c5.625,-9.745 5.863,-21.687 0.629,-31.65l-52.208,-99.429c-0,0 71.237,79.992 196.225,93.384l-53.583,235.329l32.812,49.216l82.033,0c-10.608,-21.212 -28.254,-38.079 -49.929,-47.712l-3.392,-1.504l73.83,-184.571l61.35,-66.417c77.12,-26.679 141.187,-81.296 179.891,-149.025l52.246,-20.9c8.963,-3.583 15.888,-10.933 18.942,-20.087l9.341,-28.029c1.292,-3.875 -0.466,-8.109 -4.116,-9.934Z" style="fill:#e4e8f7;fill-rule:nonzero;"/></svg>